<?xml version="1.0" encoding="UTF-8" standalone="no"?>
<svg width="19px" height="20px" viewBox="0 0 19 20" version="1.1" xmlns="http://www.w3.org/2000/svg" xmlns:xlink="http://www.w3.org/1999/xlink">
    <!-- Generator: sketchtool 3.8.1 (29687) - http://www.bohemiancoding.com/sketch -->
    <title>B1E89689-8600-4434-B349-A2C26EE9DFD7</title>
    <desc>Created with sketchtool.</desc>
    <defs></defs>
    <g id="Page-1" stroke="none" stroke-width="1" fill="none" fill-rule="evenodd">
        <g id="chatbox" transform="translate(-999.000000, -702.000000)" stroke="#FFFFFF" stroke-width="0.5" fill="#FFFFFF">
            <g id="Group-2" transform="translate(986.000000, 692.000000)">
                <g id="chat" transform="translate(14.000000, 11.000000)">
                    <path d="M6.92815249,7.3125 C7.38707331,7.3125 7.75953079,6.9350625 7.75953079,6.46875 C7.75953079,6.003 7.38707331,5.625 6.92815249,5.625 C6.46923167,5.625 6.09677419,6.003 6.09677419,6.46875 C6.09677419,6.9350625 6.46923167,7.3125 6.92815249,7.3125 L6.92815249,7.3125 Z M10.2536657,7.3125 C10.7125865,7.3125 11.085044,6.9350625 11.085044,6.46875 C11.085044,6.003 10.7125865,5.625 10.2536657,5.625 C9.79474487,5.625 9.42228739,6.003 9.42228739,6.46875 C9.42228739,6.9350625 9.79474487,7.3125 10.2536657,7.3125 L10.2536657,7.3125 Z M5.34077419,12.7895625 C5.7719824,12.8604375 6.75134604,12.9375 7.20527859,12.9375 C11.1848094,12.9375 13.856305,9.9320625 13.856305,6.3984375 C13.856305,2.8648125 10.518044,0 7.20527859,0 C3.22020528,0 0,2.8648125 0,6.3984375 C0,8.445375 0.768747801,10.1835 2.2170088,11.4350625 L2.2170088,14.625 L5.34077419,12.7895625 L5.34077419,12.7895625 Z M1.1085044,6.46875 C1.1085044,3.5173125 3.7428651,1.125 7.20527859,1.125 C9.96157478,1.125 12.7478006,3.5173125 12.7478006,6.46875 C12.7478006,9.4201875 10.5723607,11.8125 7.20527859,11.8125 C6.71033138,11.8125 5.67775953,11.755125 5.21717595,11.6578125 L3.3255132,12.9375 L3.3255132,10.944 C1.97369208,9.8308125 1.1085044,8.3435625 1.1085044,6.46875 L1.1085044,6.46875 Z M14.9365425,5.140125 C14.9470733,5.3015625 14.9648094,5.4613125 14.9648094,5.625 C14.9648094,5.98275 14.931,6.3331875 14.8811173,6.679125 C15.6271408,7.565625 16.0733138,8.6574375 16.0733138,9.84375 C16.0733138,11.7185625 14.9692434,13.3655625 13.3020528,14.319 L13.3020528,16.3125 L11.41039,15.0328125 C10.9498065,15.130125 10.4714868,15.1875 9.97653959,15.1875 C8.54102639,15.1875 7.77837537,14.749875 6.73638123,14.022 C6.43431378,14.04675 6.12892082,14.0625 5.81964809,14.0625 C5.59905572,14.0625 5.38289736,14.0461875 5.1656305,14.0338125 C6.48475073,15.3433125 7.84211437,16.171875 9.97653959,16.171875 C10.4304721,16.171875 10.8733196,16.13025 11.3039736,16.0588125 L14.4105572,18 L14.4105572,14.8095 C16.0949296,13.638375 17.1818182,11.820375 17.1818182,9.772875 C17.1818182,7.948125 16.3171848,6.3061875 14.9365425,5.140125 L14.9365425,5.140125 Z M3.6026393,7.3125 C4.06156012,7.3125 4.4340176,6.9350625 4.4340176,6.46875 C4.4340176,6.003 4.06156012,5.625 3.6026393,5.625 C3.14371848,5.625 2.771261,6.003 2.771261,6.46875 C2.771261,6.9350625 3.14371848,7.3125 3.6026393,7.3125 L3.6026393,7.3125 Z" id="Shape"></path>
                </g>
            </g>
        </g>
    </g>
</svg>