<?xml version="1.0" encoding="UTF-8" standalone="no"?>
<svg width="15px" height="9px" viewBox="0 0 15 9" version="1.1" xmlns="http://www.w3.org/2000/svg" xmlns:xlink="http://www.w3.org/1999/xlink">
    <!-- Generator: sketchtool 3.8.1 (29687) - http://www.bohemiancoding.com/sketch -->
    <title>E2E9ACE1-C874-495D-AEEE-7AD89FE8DEE9</title>
    <desc>Created with sketchtool.</desc>
    <defs></defs>
    <g id="Page-1" stroke="none" stroke-width="1" fill="none" fill-rule="evenodd">
        <g id="chatbox-2" transform="translate(-1190.000000, -434.000000)" fill="#FFFFFF">
            <g id="Group-4" transform="translate(986.000000, 418.000000)">
                <g id="Group-2">
                    <g id="down-icon" transform="translate(211.500000, 20.500000) rotate(-270.000000) translate(-211.500000, -20.500000) translate(207.000000, 13.000000)">
                        <path d="M1.9457578,14.6940943 C1.52305169,15.1019686 0.837862064,15.1019686 0.415362963,14.6940943 C-0.00713613904,14.2864197 -0.00713613904,13.6250721 0.415362963,13.2173975 L6.29495237,7.54430921 L0.415569968,1.87122093 C-0.00692913311,1.46334661 -0.00692913311,0.802198728 0.415569968,0.394524157 C0.83806907,-0.0133501575 1.5232587,-0.0133501575 1.9459648,0.394524157 L8.59085513,6.8060607 C8.80200118,7.00999785 8.9075742,7.27705366 8.9075742,7.54430921 C8.9075742,7.81156476 8.80179417,8.07882031 8.59064813,8.28255772 L1.9457578,14.6940943 Z" id="Shape" transform="translate(4.503031, 7.544309) rotate(-360.000000) translate(-4.503031, -7.544309) "></path>
                    </g>
                </g>
            </g>
        </g>
    </g>
</svg>